<svg width="48" height="42" viewBox="100 44 48 42" fill="none" xmlns="http://www.w3.org/2000/svg">
<path d="M114.789 84.9269C121.925 84.9269 127.71 79.1509 127.71 72.0259C127.71 64.9009 121.925 59.125 114.789 59.125C107.654 59.125 101.869 64.9009 101.869 72.0259C101.869 79.1509 107.654 84.9269 114.789 84.9269Z" fill="#04E061"/>
<path d="M137.204 83.2942C141.516 83.2942 145.011 79.804 145.011 75.4986C145.011 71.1932 141.516 67.7031 137.204 67.7031C132.892 67.7031 129.396 71.1932 129.396 75.4986C129.396 79.804 132.892 83.2942 137.204 83.2942Z" fill="#FF4053"/>
<path d="M117.261 57.4411C119.929 57.4411 122.092 55.2813 122.092 52.617C122.092 49.9528 119.929 47.793 117.261 47.793C114.593 47.793 112.43 49.9528 112.43 52.617C112.43 55.2813 114.593 57.4411 117.261 57.4411Z" fill="#965EEB"/>
<path d="M134.17 66.0209C139.971 66.0209 144.675 61.3248 144.675 55.5319C144.675 49.739 139.971 45.043 134.17 45.043C128.368 45.043 123.665 49.739 123.665 55.5319C123.665 61.3248 128.368 66.0209 134.17 66.0209Z" fill="#00AAFF"/>
</svg>
