<svg width="247" height="274" viewBox="45 49 247 274" fill="none" xmlns="http://www.w3.org/2000/svg">
  <path d="M45.1716 132.427V239.572C45.1689 244.686 46.5192 249.711 49.0855 254.135C51.6519 258.559 55.3429 262.225 59.784 264.762L153.984 318.578C158.365 321.082 163.325 322.4 168.372 322.4C173.418 322.4 178.378 321.082 182.76 318.578L276.964 264.762C281.403 262.224 285.093 258.557 287.658 254.133C290.224 249.709 291.574 244.686 291.572 239.572V132.427C291.573 127.314 290.222 122.292 287.657 117.869C285.091 113.446 281.402 109.78 276.964 107.242L182.76 53.4211C178.378 50.9169 173.418 49.5996 168.372 49.5996C163.325 49.5996 158.365 50.9169 153.984 53.4211L59.784 107.242C55.3439 109.779 51.6535 113.444 49.0872 117.867C46.521 122.291 45.1701 127.314 45.1716 132.427" fill="url(#kaspersky-outer)"/>
  <path d="M90.6104 152.222V219.751C90.6104 226.324 94.1374 232.37 99.8306 235.642L159.29 269.559C164.928 272.776 171.815 272.776 177.453 269.559L236.912 235.642C242.605 232.397 246.132 226.324 246.132 219.751V152.222C246.132 145.649 242.605 139.603 236.912 136.358L177.453 102.441C171.815 99.2241 164.928 99.2241 159.29 102.441L99.8306 136.358C94.1374 139.603 90.6104 145.677 90.6104 152.222Z" fill="url(#kaspersky-inner)"/>
  <path d="M168.372 107.601C170.052 107.601 171.732 108.161 173.412 109.001L233.332 143.161C236.412 144.841 238.372 148.201 238.372 151.841V220.161C238.372 223.801 236.412 227.161 233.332 228.841L173.412 263.001C171.732 263.841 170.052 264.401 168.372 264.401C166.692 264.401 165.012 263.841 163.332 263.001L103.412 228.841C100.332 227.161 98.3716 223.801 98.3716 220.161V151.841C98.3716 148.201 100.332 144.841 103.412 143.161L163.332 109.001C165.012 108.161 166.692 107.601 168.372 107.601ZM168.372 99.2007C165.292 99.2007 161.932 100.041 159.132 101.721L99.2116 135.881C93.6116 139.241 89.9716 145.401 89.9716 151.841V220.161C89.9716 226.881 93.6116 232.761 99.2116 236.121L159.132 270.281C161.932 271.961 165.012 272.801 168.372 272.801C171.732 272.801 174.812 271.961 177.612 270.281L237.532 236.121C243.412 232.761 246.772 226.601 246.772 220.161V151.841C246.772 145.121 243.132 139.241 237.532 135.881L177.612 101.721C174.812 100.041 171.452 99.2007 168.372 99.2007Z" fill="#000"/>
  <path d="M146.215 219.188H158.663V144.302H146.215V219.188ZM199.05 163.717H183.559L165.026 188.402V194.504L183.559 219.188H199.05L177.197 191.453L199.05 163.717Z" fill="#000"/>
  <defs>
    <linearGradient id="kaspersky-outer" x1="269.786" y1="63.5683" x2="95.2736" y2="263.574" gradientUnits="userSpaceOnUse">
      <stop stop-color="#00AAFF"/>
      <stop offset="1" stop-color="#00D1FF"/>
    </linearGradient>
    <linearGradient id="kaspersky-inner" x1="42.7028" y1="226.107" x2="202.977" y2="58.7132" gradientUnits="userSpaceOnUse">
      <stop stop-color="#23D1AE"/>
      <stop offset="1" stop-color="#7EFF33"/>
    </linearGradient>
  </defs>
</svg>
