<svg width="18" height="18" viewBox="0 0 18 18" fill="none" xmlns="http://www.w3.org/2000/svg">
<g clip-path="url(#clip0_3031_936)">
<mask id="mask0_3031_936" style="mask-type:luminance" maskUnits="userSpaceOnUse" x="0" y="0" width="18" height="18">
<path d="M18 0H0V18H18V0Z" fill="white"/>
</mask>
<g mask="url(#mask0_3031_936)">
<path d="M18 0H0V18H18V0Z" fill="#FF0032"/>
<path d="M11.9912 1.38281V2.21121H13.8026V5.53582H14.8151V2.21121H16.6229V1.38281H11.9912Z" fill="white"/>
<path d="M5.47887 1.38281L4.15342 4.12941L2.83169 1.38281H1.38477V5.53582H2.40092V2.56465L3.69321 5.07559H4.61732L5.9096 2.56465V5.53582H6.9221V1.38281H5.47887Z" fill="white"/>
<path d="M15.6106 15.2318C15.5848 15.3975 15.5185 15.5337 15.4118 15.6368C15.3124 15.7325 15.1761 15.8025 15.0068 15.843C14.8411 15.8798 14.5944 15.9019 14.3367 15.9019C14.0679 15.9019 13.8323 15.8687 13.6298 15.7988C13.4347 15.7325 13.28 15.6147 13.1733 15.4527C13.0628 15.2907 13.0076 15.0551 13.0076 14.7495V14.3261C13.0076 14.0242 13.0628 13.7886 13.1733 13.6229C13.2837 13.4609 13.4347 13.3431 13.6298 13.2768C13.8286 13.2069 14.0679 13.1737 14.3367 13.1737C14.5944 13.1737 14.8411 13.1958 15.0068 13.2326C15.1761 13.2731 15.3124 13.3394 15.4118 13.4388C15.5185 13.5419 15.5848 13.6781 15.6106 13.8438H16.623C16.5936 13.5014 16.4795 13.2105 16.277 12.9749C16.0929 12.7614 15.8352 12.6067 15.5149 12.511C15.2056 12.419 14.7969 12.3711 14.3367 12.3711C13.8507 12.3711 13.431 12.441 13.0849 12.5773C12.7352 12.7172 12.4627 12.9491 12.2749 13.2695C12.0945 13.575 12.0025 13.9874 11.9951 14.4881V14.536L12.0503 14.5396L11.9951 14.5433V14.547V14.5912C12.0025 15.0919 12.0945 15.5042 12.2749 15.8098C12.4627 16.1301 12.7352 16.3621 13.0849 16.502C13.431 16.6382 13.8507 16.7082 14.3367 16.7082C14.7969 16.7082 15.2056 16.6603 15.5149 16.5683C15.8352 16.4726 16.0892 16.3179 16.277 16.1044C16.4795 15.8724 16.5973 15.5779 16.623 15.2355H15.6106V15.2318Z" fill="white"/>
</g>
</g>
<defs>
<clipPath id="clip0_3031_936">
<rect width="18" height="18" fill="white"/>
</clipPath>
</defs>
</svg>
