<svg xmlns="http://www.w3.org/2000/svg" width="88" height="88" viewBox="0 0 1001 1001" fill="none">
  <defs>
    <clipPath id="ozon-clip">
      <path d="M800.8.4h-600a200 200 0 0 0-200 200v600a200 200 0 0 0 200 199.9h600a200 200 0 0 0 200-200v-600a200 200 0 0 0-200-200"/>
    </clipPath>
  </defs>
  <g clip-path="url(#ozon-clip)">
    <path fill="#005BFF" d="M.8.4h1000v999.9H.8z"/>
    <g fill="#F1117E">
      <path d="M1111.4 857c-76 68.4-163.6 169.3-273.6 165.3-29.7-20 17.2-58.9 32.2-75.7 48-53.8 95.3-111.2 141.9-169.8 167.7-210.5 112.8-93.1 99.5 80.3m-195-1035.6C841.5-7.4 749.7 162.6 620.3 299.4c-89.6 94.6-152 165.2-262.6 250.3-127.9 98.3-253 175-374.1 279.3a776 776 0 0 1-221 142.3c.6 6.6 7.4 102.6 7.6 104 1.2-.7 23.8-19 28.3-22.2 191.1-133 410.9-222.3 598-364.6 230.1-193.6 423-433 587.6-684 149.8-209.2 248.1-212.7-67.7-183M183.7 53.3A9029 9029 0 0 0 51.8 196C28 222.5 6.6 251-16.9 277.8c-42 47.9-85.4 95.2-135 134.4-50.3 39.6-104.5 79.7-155.8 118 0-2.8-6.2-137.3-6.3-140.3a918 918 0 0 0 59.8-118.6c9.5-23.6 17.9-48.4 27.5-72C-208.4 153.6-184.3 112-149 79a299 299 0 0 1 65.8-44.2C-13-2.7 57-41 127.2-78.1c41.8-22.2 73.5-61 110.8-90.2l148-6.7C318.9-98.5 253.9-21 183.8 53.3m324.8 1076.2c55.7-56.6 251-188 219.9-206a10 10 0 0 0-9.2-.2C611.9 975 511.8 1048.8 436.5 1142a10 10 0 0 1-8 3.8l-111.2-1.2a10 10 0 0 1-5.8-18.3l14.3-10.3c88.3-68 186.8-119.2 282.1-174.8a949 949 0 0 0 291-263.7c35.8-49.3 72.1-98 114.8-141.1q.7-.8 1.5-1.3c119-80.8 151.9-322.7 316-408.1a10 10 0 0 1 14.8 9c-.6 62.2-82.8 112.8-88.2 176.6l-.3 1.9C1193.7 546.6 968.8 704 862.1 825c-63.3 72-138.5 215-224.9 310.6a10 10 0 0 0-2.1 3.7c-4.3 13.1-81.7 8.6-119.8 7.2a10 10 0 0 1-6.8-17m-787.8 44C-65.3 1026.2 190.4 949.3 400 797c121.4-104.4 214.3-240.8 337.4-342.3 34-20.5 24.4 10.6 13.4 30.7-123.6 248-370.5 390.3-600.5 526.3-166 106.1-199 194.6-429.5 162"/>
      <path d="M1194.4 156.7C1380.1 64.5 1332-32.9 1308-219c-97 69-158.1 146.9-232.2 237.8-219.3 253.8-297 625.1-594.1 815-152.6 88.8-275.9 215-406.2 332 29.4-10.4 194.7 7 203-38.5 39-65.9 81.5-118.2 153.1-149.2C566 907.5 681.8 807.4 799.7 712.9c161.7-160 161.8-461.8 394.7-556.2M894.6-177.8c-118 213.8-334.4 432.3-553.1 596A689 689 0 0 1 52.7 543.7C-27 558.4-61.9 581.8-176 677.5c-39.4 41.2-60.6 79.3-94.7 145l-9.3-204.9C-189.3 494-50.5 440.4 54.6 335c86.7-90.5 147.2-204 227.1-300.3 40-50.8 166.4-165.2 190.3-193.4l131-6C543.1-89 482.3-16.8 356 132.5c-15.1 18-140.6 147.2-186.4 218.2-15 23.1-25 46.7-13.8 55.4 12 9.3 28.8-6.1 56-23.1 155.8-97.4 264.8-189.4 391-346.6 204.5-254.6 47.8-232 291.7-214.2"/>
    </g>
    <path fill="#FFF" d="M420 576.5 331.6 600l72.7-179.3a7.8 7.8 0 0 0-9.2-10.4l-163 43.6a27 27 0 0 0 14 52.1l73.2-19.6-73 179.5a7.7 7.7 0 0 0 9.1 10.4L434 628.7a27 27 0 0 0-14-52zm526.4-313.8a27 27 0 0 0-19 33l23.3 87.4L780 309a7.7 7.7 0 0 0-10.7 9l48.2 179.7a27 27 0 0 0 52-14l-23.3-87.3 170.8 74a7.8 7.8 0 0 0 10.6-9.1l-48.2-179.7a27 27 0 0 0-33-19m-328 265.9c-59.6 16-112.6-3.5-120.1-31.6s28.6-71.4 88.2-87.4 112.5 3.5 120 31.6c7.6 28-28.4 71.4-88.2 87.4m-45.8-171c-86.2 23-142.8 91.7-126.3 153.3s99.8 92.8 186 69.7 143-91.5 126.5-153.3-99.8-92.8-186-69.6M105.5 666a61.7 61.7 0 1 1 43.4-75.6 61.7 61.7 0 0 1-43.5 75.6M59.7 495A115.5 115.5 0 1 0 201 576.8v-.2A115.5 115.5 0 0 0 59.7 495"/>
  </g>
</svg>
