<svg xmlns="http://www.w3.org/2000/svg" width="48" height="50" fill="none" viewBox="0 0 48 50"><defs><linearGradient id="linear0" x1="2.171" x2=".312" y1="13.495" y2="8.081" gradientTransform="scale(2.93204 2.94118)" gradientUnits="userSpaceOnUse"><stop offset=".144" stop-color="#f2e913"/><stop offset=".304" stop-color="#e7e518"/><stop offset=".582" stop-color="#cadb26"/><stop offset=".891" stop-color="#a3cd39"/></linearGradient><linearGradient id="linear1" x1="2.884" x2="7.603" y1="2.286" y2=".474" gradientTransform="scale(2.93204 2.94118)" gradientUnits="userSpaceOnUse"><stop offset=".059" stop-color="#0fa8e0"/><stop offset=".538" stop-color="#0099f9"/><stop offset=".923" stop-color="#0291eb"/></linearGradient><linearGradient id="linear2" x1="7.424" x2="13.049" y1="14.494" y2="13.213" gradientTransform="scale(2.93204 2.94118)" gradientUnits="userSpaceOnUse"><stop offset=".123" stop-color="#a3cd39"/><stop offset=".285" stop-color="#86c339"/><stop offset=".869" stop-color="#21a038"/></linearGradient><linearGradient id="linear3" x1="7.561" x2="12.238" y1="1.309" y2="2.764" gradientTransform="scale(2.93204 2.94118)" gradientUnits="userSpaceOnUse"><stop offset=".057" stop-color="#0291eb"/><stop offset=".79" stop-color="#0c8acb"/></linearGradient><linearGradient id="linear4" x1="2.548" x2="7.572" y1="13.727" y2="15.618" gradientTransform="scale(2.93204 2.94118)" gradientUnits="userSpaceOnUse"><stop offset=".132" stop-color="#f2e913"/><stop offset=".298" stop-color="#ebe716"/><stop offset=".531" stop-color="#d9e01f"/><stop offset=".802" stop-color="#bbd62d"/><stop offset=".983" stop-color="#a3cd39"/></linearGradient><linearGradient id="linear5" x1="1.442" x2="3.451" y1="8.327" y2="3.06" gradientTransform="scale(2.93204 2.94118)" gradientUnits="userSpaceOnUse"><stop offset=".07" stop-color="#a3cd39"/><stop offset=".26" stop-color="#81c55f"/><stop offset=".922" stop-color="#0fa8e0"/></linearGradient></defs><path fill="#21a038" d="M41.605 9.547c1.094 1.43 2.008 2.996 2.782 4.656L23.313 29.926 14.46 24.3v-6.73l8.805 5.577Zm0 0"/><path fill="url(#linear0)" d="M5.473 23.84c0-.324 0-.598.047-.922l-5.336-.277c0 .37-.047.785-.047 1.152a23.48 23.48 0 0 0 6.797 16.555l3.785-3.828a17.82 17.82 0 0 1-5.246-12.68m0 0"/><path fill="url(#linear1)" d="M23.266 5.855c.32 0 .593 0 .914.047l.273-5.394c-.367 0-.777-.047-1.14-.047-6.387 0-12.18 2.629-16.38 6.871l3.786 3.828c3.195-3.273 7.664-5.305 12.547-5.305m0 0"/><path fill="url(#linear2)" d="M23.266 41.824c-.32 0-.594 0-.914-.047l-.274 5.395c.367 0 .777.047 1.14.047 6.387 0 12.184-2.63 16.38-6.871l-3.785-3.828c-3.196 3.32-7.622 5.304-12.547 5.304m0 0"/><path fill="url(#linear3)" d="m33.3 8.992 4.516-3.367c-3.968-3.227-9.03-5.21-14.55-5.21v5.394c3.742.046 7.207 1.199 10.035 3.183m0 0"/><path fill="#21a038" d="M46.441 23.84c0-1.43-.136-2.813-.367-4.195l-4.972 3.734v.46a17.96 17.96 0 0 1-5.883 13.329l3.601 4.012c4.657-4.242 7.621-10.47 7.621-17.34m0 0"/><path fill="url(#linear4)" d="M23.266 41.824c-5.246 0-9.946-2.304-13.184-5.949L6.113 39.52c4.242 4.75 10.356 7.699 17.153 7.699Zm0 0"/><path fill="url(#linear5)" d="M11.36 10.512 7.753 6.5C3.054 10.79.137 16.969.137 23.84h5.336a18.03 18.03 0 0 1 5.886-13.328m0 0"/></svg>