<svg width="18" height="18" viewBox="0 0 18 18" fill="none" xmlns="http://www.w3.org/2000/svg">
<g clip-path="url(#clip0_3031_977)">
<path d="M0 8.64C0 4.56705 0 2.5306 1.2653 1.2653C2.5306 0 4.56705 0 8.64 0H9.36C13.433 0 15.4694 0 16.7347 1.2653C18 2.5306 18 4.56705 18 8.64V9.36C18 13.433 18 15.4694 16.7347 16.7347C15.4694 18 13.433 18 9.36 18H8.64C4.56705 18 2.5306 18 1.2653 16.7347C0 15.4694 0 13.433 0 9.36V8.64Z" fill="#0077FF"/>
<path d="M9.57707 12.9691C5.47457 12.9691 3.13461 10.1566 3.03711 5.47656H5.09211C5.15961 8.91156 6.67457 10.3666 7.87457 10.6666V5.47656H9.80965V8.43906C10.9946 8.31156 12.2395 6.96156 12.6595 5.47656H14.5945C14.272 7.30656 12.922 8.65656 11.962 9.21156C12.922 9.66156 14.4596 10.8391 15.0446 12.9691H12.9145C12.457 11.5441 11.3171 10.4416 9.80965 10.2916V12.9691H9.57707Z" fill="white"/>
</g>
<defs>
<clipPath id="clip0_3031_977">
<rect width="18" height="18" fill="white"/>
</clipPath>
</defs>
</svg>
