<svg width="18" height="18" viewBox="0 0 18 18" fill="none" xmlns="http://www.w3.org/2000/svg">
<g clip-path="url(#clip0_3031_953)">
<g clip-path="url(#clip1_3031_953)">
<path d="M0 9.0128C0 6.05492 0 4.57597 0.575643 3.44621C1.08199 2.45245 1.88995 1.64449 2.88371 1.13814C4.01347 0.5625 5.49242 0.5625 8.4503 0.5625H9.5497C12.5076 0.5625 13.9865 0.5625 15.1163 1.13814C16.1101 1.64449 16.918 2.45245 17.4244 3.44621C18 4.57597 18 6.05492 18 9.0128V10.1122C18 13.0701 18 14.549 17.4244 15.6788C16.918 16.6726 16.1101 17.4805 15.1163 17.9869C13.9865 18.5625 12.5076 18.5625 9.5497 18.5625H8.4503C5.49242 18.5625 4.01347 18.5625 2.88371 17.9869C1.88995 17.4805 1.08199 16.6726 0.575643 15.6788C0 14.549 0 13.0701 0 10.1122V9.0128Z" fill="url(#paint0_linear_3031_953)"/>
<path d="M13.62 6.91596C12.9753 6.91596 12.3925 7.11025 11.8954 7.44392V4.39844H10.5203V10.015C10.5203 11.7238 11.9105 13.0989 13.6117 13.0989C15.313 13.0989 16.719 11.732 16.719 9.99922C16.719 8.26639 15.3439 6.91529 13.6193 6.91529L13.62 6.91596ZM7.37869 10.4118L6.12026 7.13359H5.15704L3.89107 10.4118L2.62509 7.13359H1.125L3.33909 12.8978H4.30229L5.63075 9.4644L6.96677 12.8978H7.92996L10.1365 7.13359H8.64465L7.37869 10.4118ZM13.6125 11.7245C12.6801 11.7245 11.8954 10.9789 11.8954 10.0074C11.8954 9.036 12.6334 8.29864 13.62 8.29864C14.6066 8.29864 15.3446 9.06758 15.3446 10.0074C15.3446 10.9473 14.5599 11.7245 13.6125 11.7245Z" fill="white"/>
</g>
</g>
<defs>
<linearGradient id="paint0_linear_3031_953" x1="6.05455" y1="20.1171" x2="17.1" y2="1.70796" gradientUnits="userSpaceOnUse">
<stop stop-color="#6F01FB"/>
<stop offset="1" stop-color="#FF49D7"/>
</linearGradient>
<clipPath id="clip0_3031_953">
<rect width="18" height="18" fill="white"/>
</clipPath>
<clipPath id="clip1_3031_953">
<rect width="18" height="18" fill="white"/>
</clipPath>
</defs>
</svg>
